# xmcd
#
# Track frame offsets:
#	150
#	56348
#	87729
#	152863
#	189676
#	210936
#	232749
#	257027
#
# Disc length: 4172 seconds
#
# Revision: 1
# Processed by: cddbd v1.5.2PL0 Copyright (c) Steve Scherf et al.
# Submitted via: EZCDAudioConverter 2.1.7.1
#
DISCID=63104a08
DTITLE=The Butterfield Blues Band - Live Vol 2
DYEAR=1970
DGENRE=Blues
TTITLE0=Gene's Tune
TTITLE1=Nobody's Fault But Mine
TTITLE2=Losing Hand
TTITLE3=All In A Day
TTITLE4=Feel So Bad
TTITLE5=Except You
TTITLE6=You've Got To Love Her With A Feeling
TTITLE7=Love March
EXTD=
EXTT0=
EXTT1=
EXTT2=
EXTT3=
EXTT4=
EXTT5=
EXTT6=
EXTT7=
PLAYORDER=
